<svg xmlns="http://www.w3.org/2000/svg" width="1680" height="920" viewBox="0 0 1680 920">
  <defs>
    <linearGradient id="bg" x1="0" y1="0" x2="1" y2="1"><stop offset="0%" stop-color="#dbeafe"/><stop offset="50%" stop-color="#f5d0fe"/><stop offset="100%" stop-color="#ccfbf1"/></linearGradient>
    <style>.t1{font:700 44px 'Avenir Next',Helvetica,sans-serif;fill:#0f172a}.t2{font:500 22px 'Avenir Next',Helvetica,sans-serif;fill:#334155}.h{font:700 22px 'Avenir Next',Helvetica,sans-serif;fill:#0f172a}.s{font:500 18px 'Avenir Next',Helvetica,sans-serif;fill:#1f2937}.a{stroke:#334155;stroke-width:4;fill:none;marker-end:url(#m)}</style>
    <marker id="m" markerWidth="12" markerHeight="12" refX="10" refY="6" orient="auto"><path d="M0,0 L12,6 L0,12 z" fill="#334155"/></marker>
  </defs>
  <rect width="1680" height="920" fill="url(#bg)"/>
  <text class="t1" x="64" y="88">MicroClaw Runtime Architecture</text>
  <text class="t2" x="64" y="124">Channel adapters + shared engine + provider abstraction + memory + observability</text>

  <rect x="70" y="220" width="250" height="116" rx="18" fill="#93c5fd" stroke="#1d4ed8" stroke-width="3"/><text class="h" x="126" y="289">Telegram</text>
  <rect x="70" y="376" width="250" height="116" rx="18" fill="#c4b5fd" stroke="#6d28d9" stroke-width="3"/><text class="h" x="140" y="445">Discord</text>
  <rect x="70" y="532" width="250" height="116" rx="18" fill="#67e8f9" stroke="#0e7490" stroke-width="3"/><text class="h" x="182" y="601">Web</text>

  <rect x="420" y="178" width="760" height="566" rx="24" fill="#ffffffcc" stroke="#334155" stroke-width="3"/>
  <text class="h" x="684" y="232">Shared Core (Rust)</text>

  <rect x="474" y="270" width="652" height="82" rx="14" fill="#fde68a" stroke="#b45309" stroke-width="2.5"/><text class="s" x="640" y="320">Agent Engine (`process_with_agent`)</text>
  <rect x="474" y="372" width="314" height="98" rx="14" fill="#bfdbfe" stroke="#1d4ed8" stroke-width="2.5"/><text class="s" x="566" y="427">Tool Registry</text>
  <rect x="812" y="372" width="314" height="98" rx="14" fill="#ddd6fe" stroke="#6d28d9" stroke-width="2.5"/><text class="s" x="862" y="427">LLM Provider Layer</text>
  <rect x="474" y="494" width="314" height="98" rx="14" fill="#86efac" stroke="#15803d" stroke-width="2.5"/><text class="s" x="520" y="548">File Memory (AGENTS.md)</text>
  <rect x="812" y="494" width="314" height="98" rx="14" fill="#f9a8d4" stroke="#be185d" stroke-width="2.5"/><text class="s" x="846" y="548">Structured Memory + DB</text>
  <rect x="474" y="616" width="652" height="92" rx="14" fill="#99f6e4" stroke="#0f766e" stroke-width="2.5"/><text class="s" x="608" y="670">Scheduler + Reflector + Observability</text>

  <rect x="1278" y="236" width="326" height="112" rx="18" fill="#fca5a5" stroke="#b91c1c" stroke-width="3"/><text class="s" x="1348" y="299">SQLite / Sessions / Tasks</text>
  <rect x="1278" y="394" width="326" height="112" rx="18" fill="#fcd34d" stroke="#a16207" stroke-width="3"/><text class="s" x="1368" y="457">LLM Provider APIs</text>
  <rect x="1278" y="552" width="326" height="112" rx="18" fill="#a7f3d0" stroke="#047857" stroke-width="3"/><text class="s" x="1330" y="615">Usage + Memory Metrics</text>

  <path class="a" d="M320 278 L420 278"/><path class="a" d="M320 434 L420 434"/><path class="a" d="M320 590 L420 590"/>
  <path class="a" d="M1180 294 L1278 294"/><path class="a" d="M1180 450 L1278 450"/><path class="a" d="M1180 608 L1278 608"/>
</svg>
