<svg xmlns="http://www.w3.org/2000/svg" width="1640" height="920" viewBox="0 0 1640 920">
  <defs>
    <linearGradient id="bg12" x1="0" y1="0" x2="1" y2="1"><stop offset="0%" stop-color="#dbeafe"/><stop offset="40%" stop-color="#f5d0fe"/><stop offset="100%" stop-color="#dcfce7"/></linearGradient>
    <style>.tt{font:700 60px 'Avenir Next',Helvetica,sans-serif;fill:#0f172a}.s{font:600 28px 'Avenir Next',Helvetica,sans-serif;fill:#1e293b}.p{font:700 22px 'Avenir Next',Helvetica,sans-serif;fill:#0f172a}</style>
  </defs>
  <rect width="1640" height="920" fill="url(#bg12)"/>
  <text class="tt" x="160" y="210">Built with Rust</text>
  <text class="s" x="160" y="266">MicroClaw as a production-ready agent runtime</text>

  <rect x="160" y="338" width="230" height="80" rx="34" fill="#93c5fd" stroke="#1d4ed8" stroke-width="3"/><text class="p" x="194" y="388">Multi-Channel</text>
  <rect x="420" y="338" width="240" height="80" rx="34" fill="#c4b5fd" stroke="#6d28d9" stroke-width="3"/><text class="p" x="455" y="388">Agent Engine</text>
  <rect x="690" y="338" width="260" height="80" rx="34" fill="#fde68a" stroke="#a16207" stroke-width="3"/><text class="p" x="726" y="388">LLM Providers</text>
  <rect x="980" y="338" width="220" height="80" rx="34" fill="#86efac" stroke="#15803d" stroke-width="3"/><text class="p" x="1046" y="388">Tooling</text>
  <rect x="1230" y="338" width="220" height="80" rx="34" fill="#f9a8d4" stroke="#be185d" stroke-width="3"/><text class="p" x="1272" y="388">Scheduler</text>

  <rect x="250" y="462" width="280" height="80" rx="34" fill="#67e8f9" stroke="#0e7490" stroke-width="3"/><text class="p" x="305" y="512">File Memory</text>
  <rect x="560" y="462" width="340" height="80" rx="34" fill="#fca5a5" stroke="#b91c1c" stroke-width="3"/><text class="p" x="616" y="512">Structured Memory</text>
  <rect x="930" y="462" width="360" height="80" rx="34" fill="#a7f3d0" stroke="#047857" stroke-width="3"/><text class="p" x="978" y="512">Reflector + Quality</text>

  <rect x="420" y="610" width="800" height="100" rx="36" fill="#ffffffcc" stroke="#334155" stroke-width="3"/>
  <text class="p" x="554" y="670">Sessions, Observability, and Safe Extensibility</text>
</svg>
