<svg xmlns="http://www.w3.org/2000/svg" width="1660" height="920" viewBox="0 0 1660 920">
  <defs>
    <linearGradient id="bg3" x1="0" y1="0" x2="1" y2="1"><stop offset="0%" stop-color="#ecfeff"/><stop offset="100%" stop-color="#f5d0fe"/></linearGradient>
    <style>.tt{font:700 42px 'Avenir Next',Helvetica,sans-serif;fill:#0f172a}.h{font:700 24px 'Avenir Next',Helvetica,sans-serif;fill:#0f172a}.s{font:500 18px 'Avenir Next',Helvetica,sans-serif;fill:#1f2937}.a{stroke:#334155;stroke-width:4;fill:none;marker-end:url(#m3)}</style>
    <marker id="m3" markerWidth="12" markerHeight="12" refX="10" refY="6" orient="auto"><path d="M0,0 L12,6 L0,12 z" fill="#334155"/></marker>
  </defs>
  <rect width="1660" height="920" fill="url(#bg3)"/>
  <text class="tt" x="70" y="88">Adapters Feed One Shared Core Pipeline</text>

  <rect x="82" y="220" width="280" height="112" rx="16" fill="#93c5fd" stroke="#1d4ed8" stroke-width="3"/><text class="h" x="160" y="287">Telegram</text>
  <rect x="82" y="378" width="280" height="112" rx="16" fill="#c4b5fd" stroke="#6d28d9" stroke-width="3"/><text class="h" x="170" y="445">Discord</text>
  <rect x="82" y="536" width="280" height="112" rx="16" fill="#67e8f9" stroke="#0e7490" stroke-width="3"/><text class="h" x="210" y="603">Web</text>

  <rect x="500" y="186" width="560" height="500" rx="20" fill="#ffffffcc" stroke="#334155" stroke-width="3"/>
  <text class="h" x="690" y="244">Shared Core</text>
  <rect x="560" y="286" width="440" height="88" rx="12" fill="#fde68a" stroke="#a16207" stroke-width="2.5"/><text class="s" x="708" y="340">Normalize Input</text>
  <rect x="560" y="406" width="440" height="88" rx="12" fill="#bfdbfe" stroke="#1d4ed8" stroke-width="2.5"/><text class="s" x="702" y="460">Agent Loop</text>
  <rect x="560" y="526" width="440" height="88" rx="12" fill="#86efac" stroke="#15803d" stroke-width="2.5"/><text class="s" x="692" y="580">Persist + Respond</text>

  <rect x="1200" y="220" width="360" height="430" rx="18" fill="#ffffffcc" stroke="#334155" stroke-width="3"/>
  <text class="h" x="1312" y="278">Outputs</text>
  <rect x="1254" y="318" width="250" height="80" rx="12" fill="#f9a8d4" stroke="#be185d" stroke-width="2.5"/><text class="s" x="1322" y="365">Channel Reply</text>
  <rect x="1254" y="426" width="250" height="80" rx="12" fill="#fca5a5" stroke="#b91c1c" stroke-width="2.5"/><text class="s" x="1336" y="473">DB Write</text>
  <rect x="1254" y="534" width="250" height="80" rx="12" fill="#a7f3d0" stroke="#047857" stroke-width="2.5"/><text class="s" x="1298" y="581">Scheduler Hooks</text>

  <path class="a" d="M362 276 L500 276"/><path class="a" d="M362 434 L500 434"/><path class="a" d="M362 592 L500 592"/>
  <path class="a" d="M1060 450 L1200 450"/>
</svg>
